<svg version="1.1" id="Layer_1" xmlns="http://www.w3.org/2000/svg" xmlns:xlink="http://www.w3.org/1999/xlink" x="0px" y="0px"
	 width="100%" viewBox="0 0 50 50" enable-background="new 0 0 50 50" xml:space="preserve">
<path fill="#E7C7A6" opacity="1.000000" stroke="none" 
	d="
M34.000000,51.000000 
	C32.611004,51.000000 31.222006,51.000000 29.413925,50.646324 
	C26.659723,47.812874 24.324606,45.333092 21.964939,42.502743 
	C18.963461,38.453274 15.986534,34.754375 12.937791,30.679970 
	C10.963995,29.867981 9.062015,29.431499 7.054966,28.731506 
	C6.618644,28.024778 6.287390,27.581562 5.965986,26.766567 
	C5.280070,25.617762 4.584306,24.840738 3.928999,24.047379 
	C3.969457,24.031044 3.942331,24.113981 3.880389,23.888615 
	C3.681280,23.367344 3.464779,23.150728 3.098030,22.701626 
	C3.005202,21.964163 2.983288,21.538475 2.955411,20.793293 
	C2.915175,20.263527 2.880902,20.053253 2.837963,19.562256 
	C2.826538,18.907072 2.823779,18.532614 2.787715,17.909016 
	C2.514618,17.436283 2.274826,17.212692 2.017318,16.684406 
	C1.992235,15.972891 1.984867,15.566070 2.301272,15.010153 
	C3.140995,13.576125 3.656945,12.291191 4.552683,10.996809 
	C6.663109,10.643771 8.393747,10.300183 10.451475,9.973410 
	C11.517986,10.384678 12.257409,10.779133 13.067287,11.509415 
	C14.126666,12.208514 15.115588,12.571786 16.062458,12.954159 
	C16.020403,12.973259 16.061699,12.890626 16.074293,13.246865 
	C18.428234,15.389517 20.769581,17.175928 23.472061,18.977356 
	C25.943314,17.327431 28.053431,15.662492 30.459791,14.042986 
	C32.171959,13.974841 33.587883,13.861262 35.003807,13.747684 
	C35.092075,13.263273 35.180340,12.778862 35.268608,12.294451 
	C35.845757,13.196383 36.422909,14.098316 36.874222,15.294655 
	C36.497292,16.391262 36.246193,17.193464 35.727203,18.214336 
	C34.640060,20.621902 33.820801,22.810802 32.861771,25.290810 
	C32.234943,26.473440 31.747896,27.364965 30.905901,28.906200 
	C33.420803,28.184200 35.138905,27.690950 37.818768,26.921591 
	C33.882313,33.495918 39.761955,32.266083 41.804138,34.350235 
	C39.181244,40.144547 36.590622,45.572273 34.000000,51.000000 
z"/>
<path fill="#000000" opacity="1.000000" stroke="none" 
	d="
M30.163549,13.997553 
	C28.053431,15.662492 25.943314,17.327431 23.416185,18.613075 
	C20.686684,16.452730 18.374191,14.671678 16.061699,12.890625 
	C16.061699,12.890626 16.020403,12.973259 15.934838,12.644411 
	C14.898459,11.934904 13.947645,11.554246 12.996831,11.173587 
	C12.257409,10.779133 11.517986,10.384678 10.276039,9.634201 
	C7.906641,9.854205 6.039768,10.430232 4.172895,11.006258 
	C3.656945,12.291191 3.140995,13.576125 2.062767,14.933619 
	C1.333659,15.004120 1.166829,15.002060 1.000000,15.000000 
	C1.000000,10.370104 1.000000,5.740208 1.000000,1.000000 
	C14.687395,1.000000 28.375040,1.000000 42.525734,1.241878 
	C42.988785,1.483755 42.901722,1.959744 42.667099,2.021814 
	C42.130665,2.269776 41.973175,2.539832 41.596436,2.940053 
	C37.543095,6.656553 33.853321,10.327053 30.163549,13.997553 
z"/>
<path fill="#000000" opacity="1.000000" stroke="none" 
	d="
M5.956137,27.138348 
	C6.287390,27.581562 6.618644,28.024778 7.062656,29.067516 
	C8.765434,31.475897 10.355454,33.284756 12.072678,35.404163 
	C15.463084,38.094242 18.726288,40.473778 21.989491,42.853313 
	C24.324606,45.333092 26.659723,47.812874 28.997421,50.646324 
	C19.736439,51.000000 10.472876,51.000000 1.000000,51.000000 
	C1.000000,40.980076 1.000000,30.958694 1.225310,20.462513 
	C1.450620,19.987711 1.896312,20.055298 1.975012,20.315351 
	C2.356266,20.754532 2.658821,20.933659 2.961374,21.112785 
	C2.983288,21.538475 3.005202,21.964163 3.052523,22.965242 
	C3.366063,23.731750 3.654197,23.922865 3.942331,24.113981 
	C3.942331,24.113981 3.969457,24.031044 3.977392,24.376778 
	C4.642263,25.527792 5.299201,26.333069 5.956137,27.138348 
z"/>
<path fill="#000000" opacity="1.000000" stroke="none" 
	d="
M34.470451,51.000000 
	C36.590622,45.572273 39.181244,40.144547 41.880737,34.030930 
	C42.268368,32.563530 42.547131,31.782015 42.988533,30.662205 
	C45.101757,25.525396 47.005764,20.706884 49.049229,15.948257 
	C49.385925,15.164188 50.334309,14.642792 51.000000,14.000000 
	C51.000000,26.231691 51.000000,38.463383 51.000000,51.000000 
	C45.650829,51.000000 40.295868,51.000000 34.470451,51.000000 
z"/>
<path fill="#E7C7A6" opacity="1.000000" stroke="none" 
	d="
M51.000000,13.666667 
	C50.334309,14.642792 49.385925,15.164188 49.049229,15.948257 
	C47.005764,20.706884 45.101757,25.525396 42.609024,30.660711 
	C41.173100,30.101372 39.715511,29.322552 39.499676,28.285337 
	C39.008434,25.924633 39.126766,23.437084 39.104694,20.741982 
	C39.473801,19.988445 39.735592,19.494011 40.349335,18.961227 
	C43.070759,17.788185 44.425423,16.576130 40.993225,14.643837 
	C39.999500,12.664527 39.012909,11.041083 38.006935,9.385746 
	C42.008652,6.162571 42.430000,6.300586 44.605583,11.578749 
	C45.080696,10.004853 45.216599,8.331028 44.674698,6.916954 
	C44.110744,5.445331 42.892281,4.224529 41.960011,2.894053 
	C41.973175,2.539832 42.130665,2.269776 42.996162,2.161357 
	C45.670227,3.496518 47.780605,4.754209 49.931984,6.412264 
	C50.315323,8.541753 50.657661,10.270877 51.000000,12.000000 
	C51.000000,12.444445 51.000000,12.888889 51.000000,13.666667 
z"/>
<path fill="#E5CBAF" opacity="1.000000" stroke="none" 
	d="
M49.890984,6.011898 
	C47.780605,4.754209 45.670227,3.496518 43.230785,2.099286 
	C42.901722,1.959744 42.988785,1.483755 42.994392,1.241878 
	C44.714359,1.000000 46.428715,1.000000 48.295124,1.247195 
	C48.971504,2.278066 49.495831,3.061741 50.011208,4.207237 
	C49.965164,5.050004 49.928074,5.530951 49.890984,6.011898 
z"/>
<path fill="#FFFFFF" opacity="1.000000" stroke="none" 
	d="
M49.931984,6.412264 
	C49.928074,5.530951 49.965164,5.050004 50.251015,4.278952 
	C50.666519,3.992564 50.833260,3.996282 51.000000,4.000000 
	C51.000000,6.370557 51.000000,8.741115 51.000000,11.555836 
	C50.657661,10.270877 50.315323,8.541753 49.931984,6.412264 
z"/>
<path fill="#FFFFF5" opacity="1.000000" stroke="none" 
	d="
M1.896312,20.055298 
	C1.896312,20.055298 1.450620,19.987711 1.225310,19.993855 
	C1.000000,18.611111 1.000000,17.222221 1.000000,15.416666 
	C1.166829,15.002060 1.333659,15.004120 1.738994,15.082714 
	C1.984867,15.566070 1.992235,15.972891 2.081627,16.918877 
	C2.308832,17.760834 2.527955,17.994205 2.821020,18.158155 
	C2.823779,18.532614 2.826538,18.907072 2.598499,19.603830 
	C2.367701,19.926130 1.896312,20.055298 1.896312,20.055298 
z"/>
<path fill="#000000" opacity="1.000000" stroke="none" 
	d="
M51.000000,3.500000 
	C50.833260,3.996282 50.666519,3.992564 50.259964,3.917131 
	C49.495831,3.061741 48.971504,2.278066 48.723587,1.247196 
	C49.666664,1.666667 50.333332,2.333334 51.000000,3.500000 
z"/>
<path fill="#E5CBAF" opacity="1.000000" stroke="none" 
	d="
M41.596436,2.940053 
	C42.892281,4.224529 44.110744,5.445331 44.674698,6.916954 
	C45.216599,8.331028 45.080696,10.004853 44.605583,11.578749 
	C42.430000,6.300586 42.008652,6.162571 38.006935,9.385746 
	C39.012909,11.041083 39.999500,12.664527 40.782806,14.841907 
	C39.386368,15.263978 38.193214,15.132114 37.000057,15.000250 
	C36.422909,14.098316 35.845757,13.196383 35.268608,12.294451 
	C35.180340,12.778862 35.092075,13.263273 35.003807,13.747684 
	C33.587883,13.861262 32.171959,13.974841 30.459791,14.042986 
	C33.853321,10.327053 37.543095,6.656553 41.596436,2.940053 
z"/>
<path fill="#E6CAAE" opacity="1.000000" stroke="none" 
	d="
M38.997375,21.001087 
	C39.126766,23.437084 39.008434,25.924633 39.499676,28.285337 
	C39.715511,29.322552 41.173100,30.101372 42.446388,30.999008 
	C42.547131,31.782015 42.268368,32.563530 41.913002,33.664345 
	C39.761955,32.266083 33.882313,33.495918 37.818768,26.921591 
	C35.138905,27.690950 33.420803,28.184200 30.905901,28.906200 
	C31.747896,27.364965 32.234943,26.473440 33.246433,25.290337 
	C35.513042,23.666199 37.255207,22.333643 38.997375,21.001087 
z"/>
<path fill="#F9EBDA" opacity="1.000000" stroke="none" 
	d="
M21.964939,42.502743 
	C18.726288,40.473778 15.463084,38.094242 12.098472,35.049950 
	C12.334577,33.275284 12.672091,32.165382 13.009607,31.055479 
	C15.986534,34.754375 18.963461,38.453274 21.964939,42.502743 
z"/>
<path fill="#E5CBAF" opacity="1.000000" stroke="none" 
	d="
M39.104691,20.741983 
	C37.255207,22.333643 35.513042,23.666199 33.386208,24.999229 
	C33.820801,22.810802 34.640060,20.621902 36.078148,18.218122 
	C37.797115,18.335354 38.897251,18.667467 39.997383,18.999578 
	C39.735592,19.494011 39.473801,19.988445 39.104691,20.741983 
z"/>
<path fill="#E6CAAE" opacity="1.000000" stroke="none" 
	d="
M40.349335,18.961227 
	C38.897251,18.667467 37.797115,18.335354 36.346039,17.999454 
	C36.246193,17.193464 36.497292,16.391262 36.874222,15.294655 
	C38.193214,15.132114 39.386368,15.263978 40.789940,15.197773 
	C44.425423,16.576130 43.070759,17.788185 40.349335,18.961227 
z"/>
<path fill="#E3CBB2" opacity="1.000000" stroke="none" 
	d="
M12.937790,30.679970 
	C12.672091,32.165382 12.334577,33.275284 11.971268,34.739403 
	C10.355454,33.284756 8.765434,31.475897 7.167725,29.331028 
	C9.062015,29.431499 10.963995,29.867981 12.937790,30.679970 
z"/>
<path fill="#E3CCB5" opacity="1.000000" stroke="none" 
	d="
M16.074293,13.246864 
	C18.374191,14.671678 20.686684,16.452730 23.055052,18.598063 
	C20.769581,17.175928 18.428234,15.389517 16.074293,13.246864 
z"/>
<path fill="#E3CCB5" opacity="1.000000" stroke="none" 
	d="
M4.552683,10.996809 
	C6.039768,10.430232 7.906641,9.854205 9.948950,9.617388 
	C8.393747,10.300183 6.663109,10.643771 4.552683,10.996809 
z"/>
<path fill="#E3CCB5" opacity="1.000000" stroke="none" 
	d="
M13.067287,11.509415 
	C13.947645,11.554246 14.898459,11.934904 15.976892,12.625310 
	C15.115588,12.571786 14.126666,12.208514 13.067287,11.509415 
z"/>
<path fill="#E3CBB2" opacity="1.000000" stroke="none" 
	d="
M5.965986,26.766567 
	C5.299201,26.333069 4.642263,25.527792 3.936934,24.393112 
	C4.584306,24.840738 5.280070,25.617762 5.965986,26.766567 
z"/>
<path fill="#E7D9C9" opacity="1.000000" stroke="none" 
	d="
M2.787715,17.909016 
	C2.527955,17.994205 2.308832,17.760834 2.099343,17.223572 
	C2.274826,17.212692 2.514618,17.436283 2.787715,17.909016 
z"/>
<path fill="#E7D9C9" opacity="1.000000" stroke="none" 
	d="
M1.975012,20.315351 
	C1.896312,20.055298 2.367701,19.926130 2.607165,19.884556 
	C2.880902,20.053253 2.915175,20.263527 2.955411,20.793293 
	C2.658821,20.933659 2.356266,20.754532 1.975012,20.315351 
z"/>
<path fill="#E3CBB2" opacity="1.000000" stroke="none" 
	d="
M3.880389,23.888615 
	C3.654197,23.922865 3.366063,23.731750 3.123437,23.277016 
	C3.464779,23.150728 3.681280,23.367344 3.880389,23.888615 
z"/>
</svg>