<?xml version="1.0" encoding="UTF-8"?>
<svg id="objects" xmlns="http://www.w3.org/2000/svg" viewBox="0 0 2200 2200">
  <path d="m1328.33,821.23c21.19-44.53,45.79-87.17,75.64-126.36,56.46-74.33,131.15-136.48,218.66-170.56,70.73-27.5,150.19-32.35,219.91,1.05,110.55,48.83,167.27,178.9,133.86,293.64-4.13,13.25-8.89,27.15-14.13,40.09-13.88,34.79-32.02,67.34-54.54,97.01-44.49,59.68-109.69,108.74-167.88,155.57-171.53,138.05-368.24,334.76-446.72,447.61-89.63-111.11-210.98-204.53-340.82-254.56-213.09-82.11-458.08-67.7-649.24,50.82-51.79,31.85-99.84,70.35-141.35,114.74-1.39,1.5-1.53,3.83-.22,5.48,1.44,1.82,4.09,2.12,5.91.68,131.14-104.26,290.96-170.52,457.54-182.39,28.57-1.95,58.48-2.45,87.09-1.05,201.6,9.37,389.05,75.97,521.69,234,15.82,18.79,28.54,34.83,42.53,54.96-3.53,4.51-22.2,34.29-32.04,58.76-11.15,27.72-5.42,64.46,20.38,83.14,21.8,16.26,55.27,17.29,76.46-1.53,26.59-24.46,19.47-61.89,4.14-89.66-11.79-19.51-28.1-41.32-42.26-59.76,61.58-85.73,126.51-149.99,201.58-216.87,238.4-212.37,365.95-224.18,470.86-369.37,38.09-52.72,60.44-116.23,63.62-180.47,7.79-157.74-91.87-289.16-242.38-330.61-61.58-17.12-127.42-14.75-189.02,1.07-123.12,31.57-230.75,119.02-289.08,231.63-8.82-25.46-21.62-49.75-37.27-71.78-37.56-53.07-87.24-97.33-144.69-127.97-59.03-29.78-126.1-41.47-191.93-37.53-78.54,4.78-151.18,34.81-204.62,94.44-38.97,42.82-65.54,96.97-73.22,154.5-10.42,91.87,15.46,189.08,71.99,262.23,88.15,114.66,228.75,168,360.93,212.64,2.26.73,3.45-2.63,1.22-3.46-40.96-15.17-81.37-31.6-120.7-50.46-98.58-47.61-197.98-114.65-240.97-219.39-19.19-45.84-25.87-95.89-24.21-145.29.59-31.75,6.21-63.19,18.09-92.68,28.39-73.35,90.73-132.65,168.14-149.71,76.01-18,165.95-8.27,233.84,31.61,68.14,40.71,133.25,104.22,155.85,182.08,1.53,5.22,2.77,10.47,3.78,15.75-7.58,21.65-13.4,43.95-17.21,66.75-3.42,20.68-12.83,67.71.23,75.39,5.79,3.41,13.17,2.03,16.82-3.61,0,0,15.4-42.04,33.74-80.58Zm-11.83,825.96c4.67,10.06,8.07,19.44,8.73,29.52,1.2,20.62-14.32,28.68-33.09,23.76-24.25-5.58-34.12-32.9-30.46-55.47,1.7-11.11,13.78-35.98,24.19-49.27,10.35,15.7,21.83,34.87,30.62,51.47Z"/>
</svg>